<mxfile host="Electron" agent="Mozilla/5.0 (Windows NT 10.0; Win64; x64) AppleWebKit/537.36 (KHTML, like Gecko) draw.io/24.7.8 Chrome/128.0.6613.36 Electron/32.0.1 Safari/537.36" version="24.7.8">
  <diagram name="Page-1" id="6dY_J2Bg8tOIPsIp2blP">
    <mxGraphModel dx="1050" dy="621" grid="1" gridSize="10" guides="1" tooltips="1" connect="1" arrows="1" fold="1" page="1" pageScale="1" pageWidth="850" pageHeight="1100" math="0" shadow="0">
      <root>
        <mxCell id="0" />
        <mxCell id="1" parent="0" />
        <mxCell id="iwtUJKLjHxRUY5xuagCp-1" value="" style="group" parent="1" vertex="1" connectable="0">
          <mxGeometry x="40" y="130" width="790" height="790" as="geometry" />
        </mxCell>
        <mxCell id="vZCmfVuF4s8x9epu84NM-3" value="" style="swimlane;startSize=0;dashed=1;" parent="iwtUJKLjHxRUY5xuagCp-1" vertex="1">
          <mxGeometry x="160" y="20" width="510" height="780" as="geometry" />
        </mxCell>
        <mxCell id="vZCmfVuF4s8x9epu84NM-4" value="Login" style="ellipse;whiteSpace=wrap;html=1;" parent="vZCmfVuF4s8x9epu84NM-3" vertex="1">
          <mxGeometry x="116.013986013986" y="30.001379310344852" width="154.6853146853147" height="80.68965517241384" as="geometry" />
        </mxCell>
        <mxCell id="vZCmfVuF4s8x9epu84NM-11" value="Booking History" style="ellipse;whiteSpace=wrap;html=1;" parent="vZCmfVuF4s8x9epu84NM-3" vertex="1">
          <mxGeometry x="116.013986013986" y="569.9993103448277" width="154.6853146853147" height="80.68965517241384" as="geometry" />
        </mxCell>
        <mxCell id="vZCmfVuF4s8x9epu84NM-10" value="Book Ride" style="ellipse;whiteSpace=wrap;html=1;" parent="vZCmfVuF4s8x9epu84NM-3" vertex="1">
          <mxGeometry x="116.013986013986" y="380.00482758620706" width="154.6853146853147" height="80.68965517241384" as="geometry" />
        </mxCell>
        <mxCell id="vZCmfVuF4s8x9epu84NM-9" value="Publish Ride" style="ellipse;whiteSpace=wrap;html=1;" parent="vZCmfVuF4s8x9epu84NM-3" vertex="1">
          <mxGeometry x="116.013986013986" y="280.00034482758633" width="154.6853146853147" height="80.68965517241384" as="geometry" />
        </mxCell>
        <mxCell id="vZCmfVuF4s8x9epu84NM-8" value="Registration" style="ellipse;whiteSpace=wrap;html=1;" parent="vZCmfVuF4s8x9epu84NM-3" vertex="1">
          <mxGeometry x="116.013986013986" y="159.99586206896555" width="154.6853146853147" height="80.68965517241384" as="geometry" />
        </mxCell>
        <mxCell id="vZCmfVuF4s8x9epu84NM-6" value="Cancle Ride" style="ellipse;whiteSpace=wrap;html=1;" parent="vZCmfVuF4s8x9epu84NM-3" vertex="1">
          <mxGeometry x="116.013986013986" y="679.9955172413795" width="154.6853146853147" height="80.68965517241384" as="geometry" />
        </mxCell>
        <mxCell id="rLOhn8rX_h3pqUgOgCdQ-2" value="Payment" style="ellipse;whiteSpace=wrap;html=1;" parent="vZCmfVuF4s8x9epu84NM-3" vertex="1">
          <mxGeometry x="116.013986013986" y="480" width="154.6853146853147" height="70" as="geometry" />
        </mxCell>
        <mxCell id="rLOhn8rX_h3pqUgOgCdQ-5" value="Cash Payment" style="ellipse;whiteSpace=wrap;html=1;" parent="vZCmfVuF4s8x9epu84NM-3" vertex="1">
          <mxGeometry x="340.00398601398604" y="460.69482758620705" width="154.6853146853147" height="80.68965517241384" as="geometry" />
        </mxCell>
        <mxCell id="rLOhn8rX_h3pqUgOgCdQ-7" value="" style="endArrow=classic;html=1;rounded=0;exitX=1;exitY=0.5;exitDx=0;exitDy=0;entryX=0;entryY=0.5;entryDx=0;entryDy=0;dashed=1;" parent="vZCmfVuF4s8x9epu84NM-3" source="rLOhn8rX_h3pqUgOgCdQ-2" target="rLOhn8rX_h3pqUgOgCdQ-5" edge="1">
          <mxGeometry width="50" height="50" relative="1" as="geometry">
            <mxPoint x="280" y="490" as="sourcePoint" />
            <mxPoint x="330" y="440" as="targetPoint" />
          </mxGeometry>
        </mxCell>
        <mxCell id="rLOhn8rX_h3pqUgOgCdQ-8" value="&amp;lt;&amp;lt;include&amp;gt;&amp;gt;" style="text;html=1;align=center;verticalAlign=middle;whiteSpace=wrap;rounded=0;" parent="vZCmfVuF4s8x9epu84NM-3" vertex="1">
          <mxGeometry x="271" y="480" width="60" height="30" as="geometry" />
        </mxCell>
        <mxCell id="lA2GTJ2SwoWho-Ut6F7n-1" value="Validate" style="ellipse;whiteSpace=wrap;html=1;" parent="vZCmfVuF4s8x9epu84NM-3" vertex="1">
          <mxGeometry x="340" y="130" width="100" height="40" as="geometry" />
        </mxCell>
        <mxCell id="lA2GTJ2SwoWho-Ut6F7n-2" value="&amp;lt;&amp;lt;include&amp;gt;&amp;gt;" style="endArrow=open;endSize=12;dashed=1;html=1;rounded=0;exitX=1.001;exitY=0.532;exitDx=0;exitDy=0;exitPerimeter=0;entryX=0.5;entryY=1;entryDx=0;entryDy=0;" parent="vZCmfVuF4s8x9epu84NM-3" target="lA2GTJ2SwoWho-Ut6F7n-1" edge="1">
          <mxGeometry width="160" relative="1" as="geometry">
            <mxPoint x="270" y="182" as="sourcePoint" />
            <mxPoint x="465" y="120" as="targetPoint" />
          </mxGeometry>
        </mxCell>
        <mxCell id="lA2GTJ2SwoWho-Ut6F7n-3" value="&amp;lt;&amp;lt;include&amp;gt;&amp;gt;" style="endArrow=open;endSize=12;dashed=1;html=1;rounded=0;exitX=1;exitY=0.5;exitDx=0;exitDy=0;entryX=0;entryY=0.5;entryDx=0;entryDy=0;" parent="vZCmfVuF4s8x9epu84NM-3" target="lA2GTJ2SwoWho-Ut6F7n-1" edge="1">
          <mxGeometry width="160" relative="1" as="geometry">
            <mxPoint x="270" y="80" as="sourcePoint" />
            <mxPoint x="335" y="158" as="targetPoint" />
          </mxGeometry>
        </mxCell>
        <mxCell id="vZCmfVuF4s8x9epu84NM-12" value="Customer" style="shape=umlActor;verticalLabelPosition=bottom;verticalAlign=top;html=1;outlineConnect=0;" parent="iwtUJKLjHxRUY5xuagCp-1" vertex="1">
          <mxGeometry y="242.06896551724145" width="33.14685314685315" height="80.68965517241384" as="geometry" />
        </mxCell>
        <mxCell id="vZCmfVuF4s8x9epu84NM-14" value="" style="endArrow=none;html=1;rounded=0;entryX=0;entryY=0.5;entryDx=0;entryDy=0;" parent="iwtUJKLjHxRUY5xuagCp-1" target="vZCmfVuF4s8x9epu84NM-4" edge="1">
          <mxGeometry width="50" height="50" relative="1" as="geometry">
            <mxPoint x="33.14685314685315" y="268.9655172413794" as="sourcePoint" />
            <mxPoint x="88.39160839160839" y="201.72413793103453" as="targetPoint" />
          </mxGeometry>
        </mxCell>
        <mxCell id="vZCmfVuF4s8x9epu84NM-15" value="" style="endArrow=none;html=1;rounded=0;entryX=0;entryY=0.5;entryDx=0;entryDy=0;" parent="iwtUJKLjHxRUY5xuagCp-1" target="vZCmfVuF4s8x9epu84NM-8" edge="1">
          <mxGeometry width="50" height="50" relative="1" as="geometry">
            <mxPoint x="33.14685314685315" y="268.9655172413794" as="sourcePoint" />
            <mxPoint x="325.94405594405595" y="121.03448275862073" as="targetPoint" />
          </mxGeometry>
        </mxCell>
        <mxCell id="vZCmfVuF4s8x9epu84NM-16" value="" style="endArrow=none;html=1;rounded=0;entryX=0;entryY=0.5;entryDx=0;entryDy=0;" parent="iwtUJKLjHxRUY5xuagCp-1" target="vZCmfVuF4s8x9epu84NM-10" edge="1">
          <mxGeometry width="50" height="50" relative="1" as="geometry">
            <mxPoint x="33.14685314685315" y="268.9655172413794" as="sourcePoint" />
            <mxPoint x="325.94405594405595" y="242.06896551724145" as="targetPoint" />
          </mxGeometry>
        </mxCell>
        <mxCell id="vZCmfVuF4s8x9epu84NM-18" value="" style="endArrow=none;html=1;rounded=0;entryX=0;entryY=0.5;entryDx=0;entryDy=0;" parent="iwtUJKLjHxRUY5xuagCp-1" target="vZCmfVuF4s8x9epu84NM-6" edge="1">
          <mxGeometry width="50" height="50" relative="1" as="geometry">
            <mxPoint x="33.14685314685315" y="268.9655172413794" as="sourcePoint" />
            <mxPoint x="165.7342657342657" y="564.8275862068967" as="targetPoint" />
          </mxGeometry>
        </mxCell>
        <mxCell id="vZCmfVuF4s8x9epu84NM-19" value="Driver" style="shape=umlActor;verticalLabelPosition=bottom;verticalAlign=top;html=1;outlineConnect=0;" parent="iwtUJKLjHxRUY5xuagCp-1" vertex="1">
          <mxGeometry x="740.003916083916" y="161.37896551724145" width="33.14685314685315" height="80.68965517241384" as="geometry" />
        </mxCell>
        <mxCell id="vZCmfVuF4s8x9epu84NM-20" value="" style="endArrow=none;html=1;rounded=0;entryX=0;entryY=0.3333333333333333;entryDx=0;entryDy=0;exitX=1;exitY=0.5;exitDx=0;exitDy=0;entryPerimeter=0;" parent="iwtUJKLjHxRUY5xuagCp-1" source="vZCmfVuF4s8x9epu84NM-4" target="vZCmfVuF4s8x9epu84NM-19" edge="1">
          <mxGeometry width="50" height="50" relative="1" as="geometry">
            <mxPoint x="530.3496503496503" y="255.5172413793104" as="sourcePoint" />
            <mxPoint x="812.097902097902" y="94.13793103448278" as="targetPoint" />
          </mxGeometry>
        </mxCell>
        <mxCell id="vZCmfVuF4s8x9epu84NM-21" value="" style="endArrow=none;html=1;rounded=0;exitX=1;exitY=0.5;exitDx=0;exitDy=0;" parent="iwtUJKLjHxRUY5xuagCp-1" source="vZCmfVuF4s8x9epu84NM-9" edge="1">
          <mxGeometry width="50" height="50" relative="1" as="geometry">
            <mxPoint x="469.5804195804196" y="349.6551724137932" as="sourcePoint" />
            <mxPoint x="740" y="190" as="targetPoint" />
          </mxGeometry>
        </mxCell>
        <mxCell id="vZCmfVuF4s8x9epu84NM-22" value="" style="endArrow=none;html=1;rounded=0;exitX=1;exitY=0.5;exitDx=0;exitDy=0;entryX=0;entryY=0.3333333333333333;entryDx=0;entryDy=0;entryPerimeter=0;" parent="iwtUJKLjHxRUY5xuagCp-1" source="vZCmfVuF4s8x9epu84NM-8" target="vZCmfVuF4s8x9epu84NM-19" edge="1">
          <mxGeometry width="50" height="50" relative="1" as="geometry">
            <mxPoint x="491.67832167832165" y="134.4827586206897" as="sourcePoint" />
            <mxPoint x="730" y="270" as="targetPoint" />
          </mxGeometry>
        </mxCell>
        <mxCell id="rLOhn8rX_h3pqUgOgCdQ-3" value="" style="endArrow=none;html=1;rounded=0;entryX=0;entryY=0.5;entryDx=0;entryDy=0;exitX=1;exitY=0.3333333333333333;exitDx=0;exitDy=0;exitPerimeter=0;" parent="iwtUJKLjHxRUY5xuagCp-1" source="vZCmfVuF4s8x9epu84NM-12" target="rLOhn8rX_h3pqUgOgCdQ-2" edge="1">
          <mxGeometry width="50" height="50" relative="1" as="geometry">
            <mxPoint x="44.19580419580419" y="278.9655172413794" as="sourcePoint" />
            <mxPoint x="325.94405594405595" y="410" as="targetPoint" />
          </mxGeometry>
        </mxCell>
        <mxCell id="vZCmfVuF4s8x9epu84NM-17" value="" style="endArrow=none;html=1;rounded=0;entryX=0;entryY=0.5;entryDx=0;entryDy=0;exitX=1;exitY=0.3333333333333333;exitDx=0;exitDy=0;exitPerimeter=0;" parent="iwtUJKLjHxRUY5xuagCp-1" source="vZCmfVuF4s8x9epu84NM-12" target="vZCmfVuF4s8x9epu84NM-11" edge="1">
          <mxGeometry width="50" height="50" relative="1" as="geometry">
            <mxPoint x="-15.734265734265705" y="280" as="sourcePoint" />
            <mxPoint x="94.75524475524477" y="386.5517241379311" as="targetPoint" />
          </mxGeometry>
        </mxCell>
        <mxCell id="rLOhn8rX_h3pqUgOgCdQ-1" value="&lt;font style=&quot;font-size: 15px;&quot;&gt;Use Case&lt;/font&gt;" style="text;html=1;align=center;verticalAlign=middle;whiteSpace=wrap;rounded=0;" parent="1" vertex="1">
          <mxGeometry x="380" y="60" width="80" height="30" as="geometry" />
        </mxCell>
        <mxCell id="rLOhn8rX_h3pqUgOgCdQ-9" value="" style="endArrow=none;html=1;rounded=0;exitX=1;exitY=0.5;exitDx=0;exitDy=0;" parent="1" source="rLOhn8rX_h3pqUgOgCdQ-5" edge="1">
          <mxGeometry width="50" height="50" relative="1" as="geometry">
            <mxPoint x="481" y="460" as="sourcePoint" />
            <mxPoint x="780" y="320" as="targetPoint" />
          </mxGeometry>
        </mxCell>
      </root>
    </mxGraphModel>
  </diagram>
</mxfile>
